<svg width="32" height="33" viewBox="0 0 32 33" fill="none" xmlns="http://www.w3.org/2000/svg">
<path d="M29.2418 19.4811L31.0053 8.7626C31.0617 8.41935 31.0492 8.06659 30.9687 7.72925C30.8882 7.39192 30.7416 7.07824 30.5394 6.8104C30.3371 6.54256 30.084 6.32709 29.7981 6.17922C29.5121 6.03136 29.2003 5.95471 28.8846 5.95469H6.28801L5.6301 1.95584C5.54002 1.40691 5.27834 0.910375 4.89074 0.552909C4.50314 0.195442 4.01425 -0.000246871 3.5094 2.33735e-07H1.07771C0.791885 2.33735e-07 0.517765 0.125474 0.315655 0.348818C0.113544 0.572162 0 0.875082 0 1.19094C0 1.50679 0.113544 1.80971 0.315655 2.03306C0.517765 2.2564 0.791885 2.38188 1.07771 2.38188H3.5094L7.10656 24.2448C7.13872 24.4382 7.19243 24.6264 7.26646 24.8053C6.72837 25.3077 6.32837 25.9666 6.11181 26.7074C5.89525 27.4481 5.87078 28.2411 6.04117 28.9964C6.21156 29.7518 6.57 30.4393 7.07588 30.9811C7.58175 31.5228 8.21483 31.8971 8.90337 32.0617C9.59191 32.2262 10.3084 32.1743 10.9716 31.9118C11.6348 31.6494 12.2182 31.1869 12.6558 30.5768C13.0933 29.9667 13.3675 29.2334 13.4472 28.4599C13.5269 27.6865 13.4089 26.9038 13.1067 26.2006H22.4578C22.1076 27.0166 22.0067 27.9362 22.1703 28.821C22.3339 29.7058 22.7532 30.508 23.365 31.1067C23.9768 31.7055 24.7481 32.0684 25.5627 32.1409C26.3773 32.2134 27.1911 31.9916 27.8818 31.5088C28.5724 31.026 29.1025 30.3084 29.3922 29.4639C29.6819 28.6195 29.7155 27.6939 29.488 26.8265C29.2605 25.9591 28.7843 25.1968 28.1309 24.6543C27.4775 24.1119 26.6823 23.8187 25.8651 23.8188H9.22725L8.83534 21.4369H27.1211C27.6259 21.4371 28.1148 21.2415 28.5024 20.884C28.89 20.5265 29.1516 20.03 29.2418 19.4811ZM11.316 27.987C11.316 28.3404 11.2212 28.6857 11.0435 28.9795C10.8659 29.2733 10.6134 29.5023 10.318 29.6375C10.0227 29.7727 9.69761 29.8081 9.38403 29.7391C9.07045 29.6702 8.7824 29.5001 8.55632 29.2502C8.33024 29.0004 8.17628 28.6821 8.1139 28.3356C8.05153 27.989 8.08354 27.6298 8.20589 27.3034C8.32825 26.977 8.53545 26.698 8.80129 26.5017C9.06713 26.3054 9.37968 26.2006 9.69941 26.2006C10.128 26.2012 10.5389 26.3895 10.842 26.7244C11.145 27.0593 11.3155 27.5134 11.316 27.987ZM27.4817 27.987C27.4817 28.3404 27.3868 28.6857 27.2092 28.9795C27.0316 29.2733 26.7791 29.5023 26.4837 29.6375C26.1883 29.7727 25.8633 29.8081 25.5497 29.7391C25.2361 29.6702 24.9481 29.5001 24.722 29.2502C24.4959 29.0004 24.342 28.6821 24.2796 28.3356C24.2172 27.989 24.2492 27.6298 24.3716 27.3034C24.4939 26.977 24.7011 26.698 24.967 26.5017C25.2328 26.3054 25.5454 26.2006 25.8651 26.2006C26.2937 26.2012 26.7046 26.3895 27.0076 26.7244C27.3107 27.0593 27.4812 27.5134 27.4817 27.987ZM6.67992 8.33657H28.8846L27.1211 19.055H8.44344L6.67992 8.33657Z" fill="#202024"/>
</svg>
