<svg width="32" height="33" viewBox="0 0 32 33" fill="none" xmlns="http://www.w3.org/2000/svg">
<path d="M31.629 30.4839C29.4369 26.3515 25.8707 23.2184 21.6162 21.6872C23.686 20.4394 25.3095 18.5109 26.2375 16.198C27.1655 13.885 27.3465 11.3154 26.7528 8.8839C26.1591 6.45241 24.8235 4.29348 22.9512 2.73871C21.0788 1.18394 18.7733 0.319305 16.3886 0.277617C14.004 0.235929 11.6721 1.01949 9.75119 2.50795C7.83027 3.99641 6.42654 6.10745 5.75559 8.51683C5.08465 10.9262 5.1836 13.5007 6.03725 15.8448C6.8909 18.189 8.45203 20.1731 10.4809 21.4926C6.18002 22.8742 2.51591 25.8807 0.193147 29.934C0.111273 30.0774 0.0570226 30.2363 0.0334934 30.4018C0.00996421 30.5672 0.0176168 30.7359 0.0560145 30.8982C0.0944122 31.0605 0.162803 31.2132 0.257282 31.3477C0.351761 31.4821 0.470478 31.5957 0.606654 31.6819C0.742831 31.768 0.8938 31.8251 1.05094 31.8498C1.20809 31.8746 1.36832 31.8665 1.52251 31.826C1.67669 31.7856 1.82181 31.7135 1.94956 31.6141C2.07731 31.5146 2.18521 31.3896 2.26708 31.2462C3.6884 28.7535 5.7078 26.6983 8.1224 25.2871C10.537 23.8759 13.2617 23.1584 16.0229 23.2067C18.7841 23.255 21.4844 24.0674 23.8526 25.5623C26.2208 27.0571 28.1734 29.1818 29.5144 31.7229C29.5916 31.8691 29.6954 31.9979 29.8199 32.1019C29.9444 32.2059 30.0872 32.283 30.24 32.3289C30.3929 32.3748 30.5528 32.3885 30.7107 32.3693C30.8686 32.3501 31.0214 32.2983 31.1603 32.2169C31.2992 32.1355 31.4215 32.0262 31.5203 31.895C31.619 31.7639 31.6922 31.6135 31.7357 31.4526C31.7793 31.2916 31.7922 31.1232 31.7739 30.957C31.7556 30.7908 31.7064 30.63 31.629 30.4839ZM7.73689 11.5966C7.76503 9.83342 8.28922 8.1185 9.24317 6.66872C10.1971 5.21893 11.538 4.09941 13.0962 3.45171C14.6544 2.80401 16.36 2.65724 17.9973 3.02994C19.6346 3.40264 21.13 4.27808 22.2945 5.54556C23.459 6.81304 24.2402 8.41563 24.5394 10.1507C24.8386 11.8857 24.6422 13.6753 23.9753 15.293C23.3083 16.9108 22.2006 18.2842 20.7923 19.2394C19.384 20.1946 17.7383 20.6889 16.0634 20.6596C13.8181 20.6177 11.6806 19.6399 10.1196 17.9409C8.55861 16.2418 7.70172 13.9602 7.73689 11.5966Z" fill="#202024"/>
</svg>
